<svg viewBox="0 0 56 57" fill="none" xmlns="http://www.w3.org/2000/svg">
    <rect y="0.0249023" width="56" height="56" rx="28" fill="url(#paint0_linear_3035_7286)"/>
    <path d="M31 29.5249C30.1562 29.5249 29.5 28.8687 29.5 28.0249V25.0249C29.5 24.228 30.1562 23.5249 31 23.5249C31.7969 23.5249 32.5 24.228 32.5 25.0249V28.0249C32.5 28.8687 31.7969 29.5249 31 29.5249ZM28 27.5093C27.625 27.3687 27.25 27.2749 26.875 27.2749H25V23.5249C25 22.728 25.6562 22.0249 26.5 22.0249C27.2969 22.0249 28 22.728 28 23.5249V27.5093ZM23.5 27.2749H20.875C20.7344 27.2749 20.5938 27.3218 20.5 27.3218V17.5249C20.5 16.728 21.1562 16.0249 22 16.0249C22.7969 16.0249 23.5 16.728 23.5 17.5249V27.2749ZM35.5 25.0249C36.2969 25.0249 37 25.728 37 26.5249V29.5249C37 30.3687 36.2969 31.0249 35.5 31.0249C34.6562 31.0249 34 30.3687 34 29.5249V26.5249C34 25.728 34.6562 25.0249 35.5 25.0249ZM32.6406 30.5093C33.0625 31.6812 34.1875 32.5249 35.5 32.5249C36.0156 32.5249 36.5312 32.3843 37 32.1499V33.6499C37 37.2124 34.1406 40.0249 30.625 40.0249H26.4531C25.0938 40.0249 23.7812 39.603 22.7031 38.8062L20.9688 37.5874C19.75 36.6499 19 35.1968 19 33.6499V30.6499C19 29.6187 19.7969 28.7749 20.875 28.7749H26.875C27.9062 28.7749 28.7031 29.6187 28.7031 30.6499C28.7031 32.0093 27.4375 32.5249 26.6875 32.5249H23.4531C23.0781 32.5249 22.75 32.8999 22.75 33.2749C22.75 33.6968 23.0781 34.0249 23.4531 34.0249H26.875C28.6094 34.0249 30.0625 32.6655 30.2031 30.9312C30.4375 30.978 30.7188 31.0249 31 31.0249C31.6094 31.0249 32.1719 30.8374 32.6406 30.5093Z"
          fill="white"/>
    <defs>
        <linearGradient id="paint0_linear_3035_7286" x1="-5.14182" y1="47.1667" x2="61.1418" y2="8.88308"
                        gradientUnits="userSpaceOnUse">
            <stop stop-color="#FF6998"/>
            <stop offset="1" stop-color="#FFD488"/>
        </linearGradient>
    </defs>
</svg>
